<svg class="cart" xmlns="http://www.w3.org/2000/svg" viewBox="0 0 50 50" fill="#231F20"><polygon class="p" points="34.22 25.75 40 15.75 40 13.75 17.16 13.75 18.32 15.75 37.69 15.75 33.07 23.75 22.94 23.75 15 10 15 10 10 10 10 12 13.85 12 21.27 24.85 18.01 30.5 18.01 32.5 20.5 32.5 20.5 35 20.25 35.02 20 35.05 19.76 35.12 19.53 35.2 19.32 35.3 19.11 35.43 18.92 35.57 18.74 35.73 18.58 35.91 18.43 36.1 18.31 36.31 18.2 36.53 18.12 36.76 18.06 37 18.02 37.25 18.01 37.5 18.02 37.76 18.06 38.01 18.12 38.25 18.2 38.48 18.31 38.69 18.43 38.9 18.58 39.09 18.74 39.27 18.92 39.43 19.11 39.58 19.32 39.7 19.53 39.81 19.76 39.89 20 39.95 20.25 39.99 20.51 40 20.76 39.99 21.01 39.95 21.25 39.89 21.48 39.81 21.7 39.7 21.9 39.58 22.1 39.43 22.27 39.27 22.43 39.09 22.58 38.9 22.7 38.69 22.81 38.48 22.89 38.25 22.95 38.01 22.99 37.76 23.01 37.5 23 37.49 32.11 37.49 32.13 37.74 32.16 37.99 32.22 38.23 32.31 38.46 32.41 38.67 32.54 38.88 32.68 39.07 32.84 39.25 33.02 39.41 33.21 39.56 33.42 39.68 33.64 39.79 33.87 39.87 34.11 39.93 34.36 39.97 34.61 39.98 34.87 39.97 35.12 39.93 35.35 39.87 35.59 39.79 35.8 39.68 36.01 39.56 36.2 39.41 36.38 39.25 36.54 39.07 36.69 38.88 36.81 38.67 36.91 38.46 37 38.23 37.06 37.99 37.1 37.74 37.11 37.48 37.1 37.23 37.06 36.98 37 36.74 36.91 36.51 36.81 36.29 36.69 36.09 36.54 35.89 36.38 35.72 36.2 35.55 36.01 35.41 35.8 35.28 35.59 35.18 35.35 35.09 35.12 35.03 34.87 35 34.61 34.98 34.36 35 34.11 35.03 33.87 35.09 33.64 35.18 33.42 35.28 33.21 35.41 33.02 35.55 32.84 35.72 32.68 35.89 32.54 36.09 32.41 36.29 32.31 36.51 32.22 36.74 32.16 36.98 32.13 37.23 32.11 37.48 23 37.48 22.99 37.25 22.95 37 22.89 36.76 22.81 36.53 22.7 36.31 22.58 36.1 22.43 35.91 22.27 35.73 22.1 35.57 21.9 35.43 21.7 35.3 21.48 35.2 21.25 35.12 21.01 35.05 20.76 35.02 20.51 35 20.51 32.5 37.11 32.5 37.11 30.5 20.32 30.5 23.06 25.75 34.22 25.75"></polygon></svg>