<svg class="search" xmlns="http://www.w3.org/2000/svg" viewBox="0 0 50 50" fill="#231F20"><polygon class="p" points="13.69 13.64, 13.25 14.10, 12.85 14.55, 12.48 15.02, 12.13 15.51, 11.81 16.02, 11.51 16.54, 11.23 17.08, 10.98 17.63, 10.76 18.20, 10.56 18.78, 10.39 19.38, 10.25 19.98, 10.14 20.60, 10.06 21.22, 10.06 21.86, 10.06 22.50, 10.06 23.14, 10.06 23.78, 10.14 24.40, 10.25 25.02, 10.39 25.62, 10.56 26.22, 10.76 26.80, 10.98 27.37, 11.23 27.92, 11.51 28.46, 11.81 28.98, 12.13 29.49, 12.48 29.98, 12.85 30.45, 13.25 30.90, 13.66 31.34, 14.10 31.75, 14.55 32.15, 15.02 32.52, 15.51 32.87, 16.02 33.19, 16.54 33.49, 17.08 33.77, 17.63 34.02, 18.20 34.24, 18.78 34.44, 19.38 34.61, 19.98 34.75, 20.60 34.86, 21.22 34.94, 21.86 34.94, 22.50 34.94, 23.14 34.94, 23.78 34.94, 24.40 34.86, 25.02 34.75, 25.62 34.61, 26.22 34.44, 26.80 34.24, 27.37 34.02, 27.92 33.77, 28.46 33.49, 28.98 33.19, 29.49 32.87, 29.98 32.52, 30.45 32.15, 30.60 32.00, 38.60 40.00, 40.00 38.59, 32.00 30.59, 32.13 30.44, 32.50 29.97, 32.85 29.48, 33.17 28.97, 33.47 28.45, 33.75 27.91, 34.00 27.36, 34.22 26.79, 34.42 26.21, 34.59 25.61, 34.73 25.01, 34.84 24.39, 34.92 23.77, 34.92 23.13, 34.92 22.49, 34.92 21.85, 34.92 21.21, 34.84 20.59, 34.75 20.00, 34.61 19.40, 34.44 18.80, 34.24 18.22, 34.00 17.63, 33.75 17.08, 33.47 16.54, 33.17 16.02, 32.85 15.51, 32.52 15.00, 32.15 14.53, 31.75 14.08, 31.34 13.64, 30.90 13.23, 30.45 12.83, 30.00 12.48, 29.51 12.13, 29.00 11.81, 28.48 11.51, 27.94 11.23, 27.37 11.00, 26.80 10.78, 26.22 10.58, 25.62 10.41, 25.02 10.27, 24.40 10.16, 23.78 10.08, 23.14 10.08, 22.50 10.08, 21.86 10.08, 21.22 10.08, 20.60 10.16, 19.98 10.27, 19.38 10.41, 18.78 10.58, 18.20 10.78, 17.63 11.00, 17.08 11.25, 16.54 11.53, 16.02 11.83, 15.51 12.15, 15.02 12.50, 14.55 12.87, 14.10 13.27, 13.69 13.66, 15.11 15.07, 15.44 14.75, 15.82 14.42, 16.22 14.11, 16.63 13.82, 17.06 13.54, 17.50 13.29, 18.00 13.00, 18.47 12.79, 18.94 12.60, 19.43 12.43, 19.93 12.29, 20.44 12.17, 20.95 12.08, 21.48 12.01, 22.00 12.00, 23.00 12.00, 23.53 12.00, 24.06 12.07, 24.57 12.16, 25.08 12.28, 25.58 12.42, 26.07 12.59, 26.54 12.78, 27.01 12.99, 27.46 13.22, 27.90 13.47, 28.33 13.75, 28.74 14.04, 29.14 14.35, 29.52 14.68, 29.88 15.03, 30.23 15.39, 30.56 15.77, 30.87 16.17, 31.16 16.58, 31.44 17.01, 31.69 17.45, 32.00 18.00, 32.21 18.47, 32.40 18.94, 32.57 19.43, 32.71 19.93, 32.83 20.44, 32.92 20.95, 32.99 21.48, 33.00 22.00, 33.00 23.00, 33.00 23.53, 32.93 24.06, 32.84 24.57, 32.72 25.08, 32.58 25.58, 32.41 26.07, 32.22 26.54, 32.01 27.01, 31.78 27.46, 31.53 27.90, 31.25 28.33, 30.96 28.74, 30.65 29.14, 30.32 29.52, 29.97 29.88, 29.61 30.23, 29.23 30.56, 28.83 30.87, 28.42 31.16, 27.99 31.44, 27.55 31.69, 27.10 31.92, 26.63 32.13, 26.16 32.32, 25.67 32.49, 25.17 32.63, 24.66 32.75, 24.15 32.84, 23.62 32.91, 23.00 33.00, 22.00 33.00, 21.47 33.00, 20.94 32.93, 20.43 32.84, 19.92 32.72, 19.42 32.58, 18.93 32.41, 18.46 32.22, 18.00 32.00, 17.55 31.77, 17.11 31.52, 16.68 31.24, 16.27 30.95, 15.87 30.64, 15.49 30.31, 15.13 29.96, 14.78 29.60, 14.45 29.22, 14.14 28.82, 13.85 28.41, 13.57 27.98, 13.32 27.54, 13.00 27.05, 12.79 26.58, 12.60 26.11, 12.43 25.62, 12.29 25.12, 12.17 24.61, 12.08 24.10, 12.01 23.57, 12.00 23.00, 12.00 22.00, 12.00 21.47, 12.07 20.94, 12.16 20.43, 12.28 19.92, 12.42 19.42, 12.59 18.93, 12.78 18.46, 13.00 18.00, 13.23 17.55, 13.48 17.11, 13.76 16.68, 14.05 16.27, 14.36 15.87, 14.69 15.49, 15.07 15.10"></polygon></svg>